<?xml version="1.0" encoding="utf-8"?>
<!-- Generator: Adobe Illustrator 26.0.1, SVG Export Plug-In . SVG Version: 6.00 Build 0)  -->
<svg version="1.1" id="Ebene_1" xmlns="http://www.w3.org/2000/svg" xmlns:xlink="http://www.w3.org/1999/xlink" x="0px" y="0px"
	 viewBox="0 0 50 50" style="enable-background:new 0 0 50 50;" xml:space="preserve">
<style type="text/css">
	.st0{fill:#00FFBE;}
</style>
<g>
	<path class="st0" d="M46.9,25c0,12.1-9.8,21.9-21.9,21.9S3.1,37,3.1,25h-2c0,13.2,10.7,23.9,23.9,23.9c13.2,0,23.9-10.7,23.9-23.9
		H46.9z"/>
	<path class="st0" d="M13.2,21.6c5,0,9.2-4.1,9.2-9.2s-4.1-9.2-9.2-9.2c-5,0-9.2,4.1-9.2,9.2S8.2,21.6,13.2,21.6z M13.2,5.3
		c3.9,0,7.2,3.2,7.2,7.2c0,3.9-3.2,7.2-7.2,7.2s-7.2-3.2-7.2-7.2C6.1,8.5,9.3,5.3,13.2,5.3z"/>
	<path class="st0" d="M36.8,21.6c5,0,9.2-4.1,9.2-9.2s-4.1-9.2-9.2-9.2s-9.2,4.1-9.2,9.2S31.7,21.6,36.8,21.6z M36.8,5.3
		c3.9,0,7.2,3.2,7.2,7.2c0,3.9-3.2,7.2-7.2,7.2s-7.2-3.2-7.2-7.2C29.6,8.5,32.8,5.3,36.8,5.3z"/>
</g>
</svg>
