<?xml version="1.0" encoding="utf-8"?>
<!-- Generator: Adobe Illustrator 26.0.1, SVG Export Plug-In . SVG Version: 6.00 Build 0)  -->
<svg version="1.1" id="Ebene_1" xmlns="http://www.w3.org/2000/svg" xmlns:xlink="http://www.w3.org/1999/xlink" x="0px" y="0px"
	 viewBox="0 0 100 15" style="enable-background:new 0 0 100 15;" xml:space="preserve">
<style type="text/css">
	.st0{fill:#00FFBE;}
</style>
<g>
	<g>
		<path class="st0" d="M88.3,2.2h4.6c3.4,0,5.1,1.8,5.1,5.4S96.3,13,92.9,13h-4.6V2.2z M92.9,14.7c4.5,0,7.1-2.6,7.1-7.1
			s-2.6-7.1-7.1-7.1h-6.5v14.2H92.9z M84,4.1h-1.8v10.6H84V4.1z M53.1,2.2h6c1.8,0,2.6,0.8,2.6,2.4C61.7,6.3,61,7,59.1,7h-6V2.2z
			 M53.1,14.7v-6H59c3,0,4.6-1.4,4.6-4.1C63.7,2,62,0.5,59,0.5h-7.8v14.2H53.1z M35.5,9c0.4,3.9,2.9,6,7.3,6c4,0,6.3-1.4,6.3-4.1
			c0-2-1.4-3.2-4-3.7l-4.9-0.9c-1.7-0.3-2.3-0.9-2.3-2c0-1.5,1.4-2.3,4.2-2.3c3,0,4.6,1.3,4.9,3.9h2c-0.3-3.6-2.8-5.6-6.9-5.6
			c-3.8,0-6.1,1.5-6.1,4c0.1,2,1.4,3.2,3.9,3.7l4.9,0.9c1.7,0.3,2.4,0.9,2.4,2.1c0,1.6-1.3,2.4-4.3,2.4c-3.3,0-5-1.4-5.4-4.3H35.5z
			 M33.9,4.1h-1.8v10.6h1.8V4.1z M19,2.2H26c1.5,0,2.2,0.7,2.2,2.2c0,1.5-0.8,2.2-2.4,2.2H19V2.2z M19,14.7V8.4h5.7
			c1.8,0,2.2,0.5,2.5,2l1,4.4h2l-1.1-4.6c-0.4-1.4-0.7-2-1.7-2.4V7.5c1.8-0.4,2.7-1.5,2.7-3.3c0-2.1-1.4-3.7-4.1-3.7h-8.9v14.2H19z
			 M0,7.6C0,12,3.1,15,7.6,15c4.1,0,7-2.4,7.6-6.1h-2c-0.5,2.7-2.5,4.4-5.6,4.4C4.2,13.3,2,11,2,7.6S4.2,2,7.6,2
			c2.9,0,5,1.7,5.5,4.2h2c-0.6-3.6-3.5-5.9-7.5-5.9C3.1,0.3,0,3.3,0,7.6"/>
	</g>
</g>
<path class="st0" d="M81.4,1.3c0,0.7,0.7,1.3,1.7,1.3s1.7-0.6,1.7-1.3S84.1,0,83.1,0S81.4,0.6,81.4,1.3"/>
<path class="st0" d="M31.3,1.3C31.3,2,32,2.5,33,2.5s1.7-0.6,1.7-1.3S34,0,33,0S31.3,0.6,31.3,1.3"/>
<rect x="64.7" y="7.5" class="st0" width="15.3" height="1.1"/>
</svg>
